<?xml version="1.0" encoding="UTF-8" standalone="no"?>
<!-- Created with Inkscape (http://www.inkscape.org/) -->

<svg
   version="1.1"
   id="svg2"
   width="666.66669"
   height="666.66669"
   viewBox="0 0 666.66669 666.66669"
   sodipodi:docname="2926565.ai"
   xmlns:inkscape="http://www.inkscape.org/namespaces/inkscape"
   xmlns:sodipodi="http://sodipodi.sourceforge.net/DTD/sodipodi-0.dtd"
   xmlns="http://www.w3.org/2000/svg"
   xmlns:svg="http://www.w3.org/2000/svg">
  <defs
     id="defs6">
    <clipPath
       clipPathUnits="userSpaceOnUse"
       id="clipPath16">
      <path
         d="M 0,500 H 500 V 0 H 0 Z"
         id="path14" />
    </clipPath>
    <clipPath
       clipPathUnits="userSpaceOnUse"
       id="clipPath28">
      <path
         d="M 62.1388,399.208 H 438.51 V 170.038 H 62.1388 Z"
         id="path26" />
    </clipPath>
    <clipPath
       clipPathUnits="userSpaceOnUse"
       id="clipPath44">
      <path
         d="M 0,500 H 500 V 0 H 0 Z"
         id="path42" />
    </clipPath>
    <clipPath
       clipPathUnits="userSpaceOnUse"
       id="clipPath56">
      <path
         d="M 0,500 H 500 V 0 H 0 Z"
         id="path54" />
    </clipPath>
    <clipPath
       clipPathUnits="userSpaceOnUse"
       id="clipPath168">
      <path
         d="M 0,500 H 500 V 0 H 0 Z"
         id="path166" />
    </clipPath>
    <clipPath
       clipPathUnits="userSpaceOnUse"
       id="clipPath298">
      <path
         d="M 0,500 H 500 V 0 H 0 Z"
         id="path296" />
    </clipPath>
  </defs>
  <sodipodi:namedview
     id="namedview4"
     pagecolor="#ffffff"
     bordercolor="#000000"
     borderopacity="0.25"
     inkscape:showpageshadow="2"
     inkscape:pageopacity="0.0"
     inkscape:pagecheckerboard="0"
     inkscape:deskcolor="#d1d1d1" />
  <g
     id="g8"
     inkscape:groupmode="layer"
     inkscape:label="2926565"
     transform="matrix(1.3333333,0,0,-1.3333333,0,666.66667)">
    <g
       id="g10">
      <g
         id="g12"
         clip-path="url(#clipPath16)">
        <g
           id="g18"
           transform="translate(411.1846,207.3467)">
          <path
             d="M 0,0 -0.605,6.038 5.433,6.644 6.038,0.605 Z m -84.647,140.824 -10.816,4.251 4.251,10.816 10.816,-4.251 z m -7.748,-126.278 -10.815,4.251 4.251,10.815 10.815,-4.251 z m -22.733,69.998 -1.448,5.894 5.893,1.448 1.449,-5.893 z m -77.876,43.588 -1.449,5.893 5.893,1.449 1.449,-5.893 z m -14.823,-54.708 -10.816,4.251 4.251,10.815 10.816,-4.251 z m -22.161,-70.123 -1.449,5.893 5.894,1.45 1.448,-5.894 z m -87.935,39.287 -0.605,6.039 6.038,0.605 0.606,-6.038 z m 314.664,59.674 c 0,0 -11.333,25.334 -54.666,58.667 -43.334,33.333 -96.667,37.333 -121.333,23.333 -24.667,-14 -30,-28.666 -52,-54 -22,-25.333 -52,-35.333 -84,-51.333 -32,-16 -40,-52.666 -29.334,-85.333 10.667,-32.667 51.334,-35.333 76.667,-26.667 25.333,8.667 60.667,50 125.333,40 64.667,-10 66,-40 130,-42 64,-2 38.667,90 9.333,137.333"
             style="fill:#aaff00;fill-opacity:1;fill-rule:nonzero;stroke:none"
             id="path20" />
        </g>
        <g
           id="g22">
          <g
             id="g24" />
          <g
             id="g36">
            <g
               clip-path="url(#clipPath28)"
               opacity="0.699997"
               id="g34">
              <g
                 transform="translate(411.1846,207.3467)"
                 id="g32">
                <path
                   d="M 0,0 -0.605,6.038 5.433,6.644 6.038,0.605 Z m -84.647,140.824 -10.816,4.251 4.251,10.816 10.816,-4.251 z m -7.748,-126.278 -10.815,4.251 4.251,10.815 10.815,-4.251 z m -22.733,69.998 -1.448,5.894 5.893,1.448 1.449,-5.893 z m -77.876,43.588 -1.449,5.893 5.893,1.449 1.449,-5.893 z m -14.823,-54.708 -10.816,4.251 4.251,10.815 10.816,-4.251 z m -22.161,-70.123 -1.449,5.893 5.894,1.45 1.448,-5.894 z m -87.935,39.287 -0.605,6.039 6.038,0.605 0.606,-6.038 z m 314.664,59.674 c 0,0 -11.333,25.334 -54.666,58.667 -43.334,33.333 -96.667,37.333 -121.333,23.333 -24.667,-14 -30,-28.666 -52,-54 -22,-25.333 -52,-35.333 -84,-51.333 -32,-16 -40,-52.666 -29.334,-85.333 10.667,-32.667 51.334,-35.333 76.667,-26.667 25.333,8.667 60.667,50 125.333,40 64.667,-10 66,-40 130,-42 64,-2 38.667,90 9.333,137.333"
                   style="fill:#ffffff;fill-opacity:1;fill-rule:nonzero;stroke:none"
                   id="path30" />
              </g>
            </g>
          </g>
        </g>
      </g>
    </g>
    <g
       id="g38">
      <g
         id="g40"
         clip-path="url(#clipPath44)">
        <g
           id="g46"
           transform="translate(364.2598,112.084)">
          <path
             d="m 0,0 c -22.081,0 -39.981,6.864 -39.981,15.331 0,8.468 17.9,15.331 39.981,15.331 22.081,0 39.981,-6.863 39.981,-15.331 C 39.981,6.864 22.081,0 0,0 m -139.32,79.5 c 0,6.351 13.425,11.499 29.986,11.499 16.562,0 29.986,-5.148 29.986,-11.499 0,-6.35 -13.424,-11.498 -29.986,-11.498 -16.561,0 -29.986,5.148 -29.986,11.498 M -178.019,15.331 C -178.019,6.864 -195.919,0 -218,0 c -22.081,0 -39.981,6.864 -39.981,15.331 0,8.468 17.9,15.331 39.981,15.331 22.081,0 39.981,-6.863 39.981,-15.331 M 0,37.587 c -9.278,0 -18.024,-0.948 -25.746,-2.616 l -52.072,31.532 c 6.723,3.152 10.818,7.316 10.818,11.885 0,9.833 -18.953,17.803 -42.334,17.803 -23.379,0 -42.333,-7.97 -42.333,-17.803 0,-4.662 4.266,-8.905 11.24,-12.078 l -50.007,-31.748 c -8.153,1.923 -17.552,3.025 -27.566,3.025 -31.173,0 -56.444,-10.629 -56.444,-23.739 0,-13.111 25.271,-23.74 56.444,-23.74 31.173,0 56.444,10.629 56.444,23.74 0,7.118 -7.46,13.501 -19.26,17.851 l 49.548,31.458 c 6.397,-1.634 13.905,-2.574 21.934,-2.574 8.166,0 15.788,0.976 22.255,2.66 L -35.81,32.197 C -48.407,27.843 -56.444,21.24 -56.444,13.848 c 0,-13.111 25.27,-23.74 56.444,-23.74 31.173,0 56.444,10.629 56.444,23.74 0,13.11 -25.271,23.739 -56.444,23.739"
             style="fill:#aaff00;fill-opacity:1;fill-rule:nonzero;stroke:none"
             id="path48" />
        </g>
      </g>
    </g>
    <g
       id="g50">
      <g
         id="g52"
         clip-path="url(#clipPath56)">
        <g
           id="g58"
           transform="translate(175.9912,142.0361)">
          <path
             d="m 0,0 c 0,0 10.569,1.216 12.346,2.066 1.778,0.851 4.159,-0.345 2.92,-1.692 -1.24,-1.346 -5.463,-5.666 -7.974,-7.583 -2.51,-1.917 -8.048,-5.773 -9.621,-5.32 -1.573,0.453 -4.243,8.63 -4.243,8.63 0,0 4.891,0.721 6.572,3.899"
             style="fill:#ffffff;fill-opacity:1;fill-rule:nonzero;stroke:none"
             id="path60" />
        </g>
        <g
           id="g62"
           transform="translate(175.9912,142.0361)">
          <path
             d="m 0,0 c 0,0 10.569,1.216 12.346,2.066 1.778,0.851 4.159,-0.345 2.92,-1.692 -1.24,-1.346 -5.463,-5.666 -7.974,-7.583 -2.51,-1.917 -8.048,-5.773 -9.621,-5.32 -1.573,0.453 -4.243,8.63 -4.243,8.63 0,0 4.891,0.721 6.572,3.899 z"
             style="fill:none;stroke:#1a2e35;stroke-width:1;stroke-linecap:round;stroke-linejoin:round;stroke-miterlimit:10;stroke-dasharray:none;stroke-opacity:1"
             id="path64" />
        </g>
        <g
           id="g66"
           transform="translate(120.5405,131.5967)">
          <path
             d="m 0,0 c 0,0 7.06,-4.784 8.75,-5.842 1.691,-1.058 4.145,-0.675 3.953,-2.657 -0.192,-1.982 -4.873,-1.612 -9.257,-1.795 -4.383,-0.182 -9.945,1.563 -12.469,2.868 -2.524,1.306 0.314,5.655 0.78,7.649 C -7.777,2.217 0,0 0,0"
             style="fill:#ffffff;fill-opacity:1;fill-rule:nonzero;stroke:none"
             id="path68" />
        </g>
        <g
           id="g70"
           transform="translate(120.5405,131.5967)">
          <path
             d="m 0,0 c 0,0 7.06,-4.784 8.75,-5.842 1.691,-1.058 4.145,-0.675 3.953,-2.657 -0.192,-1.982 -4.873,-1.612 -9.257,-1.795 -4.383,-0.182 -9.945,1.563 -12.469,2.868 -2.524,1.306 0.314,5.655 0.78,7.649 C -7.777,2.217 0,0 0,0 Z"
             style="fill:none;stroke:#1a2e35;stroke-width:1;stroke-linecap:round;stroke-linejoin:round;stroke-miterlimit:10;stroke-dasharray:none;stroke-opacity:1"
             id="path72" />
        </g>
        <g
           id="g74"
           transform="translate(121.3315,235.8574)">
          <path
             d="m 0,0 c 0,0 -2.576,-6.582 -2.329,-12.528 0.247,-5.948 3.263,-9.966 3.263,-9.966 L 1.23,-54.599 c 0,0 -6.541,-10.89 -6.369,-15.027 0.172,-4.138 -4.714,-36.198 -4.714,-36.198 0,0 1.605,-1.228 3.405,-0.895 1.799,0.334 5.635,1.53 5.635,1.53 0,0 10.412,36.174 12.33,39.88 1.919,3.705 3.934,11.3 4.786,15.739 0.852,4.438 1.726,14.576 1.726,14.576 0,0 11.385,-18.435 11.945,-19.447 0.56,-1.013 2.314,-12.078 3.509,-15.913 1.195,-3.835 3.769,-9.686 6.268,-13.726 2.499,-4.041 8.648,-14.923 8.648,-14.923 0,0 2.338,-0.162 4.095,1.206 1.756,1.368 2.166,3.976 2.166,3.976 0,0 -7.302,19.899 -8.055,25.565 -0.753,5.667 -4.328,16.915 -5.297,21.537 -0.969,4.622 -15.196,35.371 -15.196,35.371 L 23.82,0.212 Z"
             style="fill:#1a2e35;fill-opacity:1;fill-rule:nonzero;stroke:none"
             id="path76" />
        </g>
        <g
           id="g78"
           transform="translate(121.3315,235.8574)">
          <path
             d="m 0,0 c 0,0 -2.576,-6.582 -2.329,-12.528 0.247,-5.948 3.263,-9.966 3.263,-9.966 L 1.23,-54.599 c 0,0 -6.541,-10.89 -6.369,-15.027 0.172,-4.138 -4.714,-36.198 -4.714,-36.198 0,0 1.605,-1.228 3.405,-0.895 1.799,0.334 5.635,1.53 5.635,1.53 0,0 10.412,36.174 12.33,39.88 1.919,3.705 3.934,11.3 4.786,15.739 0.852,4.438 1.726,14.576 1.726,14.576 0,0 11.385,-18.435 11.945,-19.447 0.56,-1.013 2.314,-12.078 3.509,-15.913 1.195,-3.835 3.769,-9.686 6.268,-13.726 2.499,-4.041 8.648,-14.923 8.648,-14.923 0,0 2.338,-0.162 4.095,1.206 1.756,1.368 2.166,3.976 2.166,3.976 0,0 -7.302,19.899 -8.055,25.565 -0.753,5.667 -4.328,16.915 -5.297,21.537 -0.969,4.622 -15.196,35.371 -15.196,35.371 L 23.82,0.212 Z"
             style="fill:none;stroke:#1a2e35;stroke-width:1;stroke-linecap:round;stroke-linejoin:round;stroke-miterlimit:10;stroke-dasharray:none;stroke-opacity:1"
             id="path80" />
        </g>
        <g
           id="g82"
           transform="translate(167.748,271.9736)">
          <path
             d="M 0,0 C 0,0 -0.247,5.947 1.563,6.022 3.373,6.097 7.553,5.234 7.09,3.92 6.626,2.606 5.883,1.798 5.883,1.798 L 3.265,2.466 6.798,-1.531 c 0,0 5.797,3.866 4.094,1.206 C 9.189,-2.986 9.318,-6.088 7.53,-6.681 5.741,-7.273 1.184,-9.793 1.184,-9.793 l -25.955,-11.179 -1.474,10.558 25.264,2.862 z"
             style="fill:#ffffff;fill-opacity:1;fill-rule:nonzero;stroke:none"
             id="path84" />
        </g>
        <g
           id="g86"
           transform="translate(167.748,271.9736)">
          <path
             d="M 0,0 C 0,0 -0.247,5.947 1.563,6.022 3.373,6.097 7.553,5.234 7.09,3.92 6.626,2.606 5.883,1.798 5.883,1.798 L 3.265,2.466 6.798,-1.531 c 0,0 5.797,3.866 4.094,1.206 C 9.189,-2.986 9.318,-6.088 7.53,-6.681 5.741,-7.273 1.184,-9.793 1.184,-9.793 l -25.955,-11.179 -1.474,10.558 25.264,2.862 z"
             style="fill:none;stroke:#1a2e35;stroke-width:1;stroke-linecap:round;stroke-linejoin:round;stroke-miterlimit:10;stroke-dasharray:none;stroke-opacity:1"
             id="path88" />
        </g>
        <g
           id="g90"
           transform="translate(143.7466,290.2319)">
          <path
             d="m 0,0 c 0,0 2.562,-13.334 2.079,-20.307 -0.483,-6.972 -0.729,-19.651 -0.46,-26.128 0.269,-6.478 1.438,-8.592 -0.06,-9.735 -1.497,-1.144 -7.03,-1.837 -14.279,-2.138 -7.248,-0.301 -10.075,0.817 -10.294,2.353 -0.218,1.537 -0.087,20.699 -1.101,26.527 -1.014,5.829 -0.208,23.629 2.228,28.21 2.436,4.582 14.742,9.573 16.6,9.495 C -3.43,8.2 0,0 0,0"
             style="fill:#aaff00;fill-opacity:1;fill-rule:nonzero;stroke:none"
             id="path92" />
        </g>
        <g
           id="g94"
           transform="translate(143.7466,290.2319)">
          <path
             d="m 0,0 c 0,0 2.562,-13.334 2.079,-20.307 -0.483,-6.972 -0.729,-19.651 -0.46,-26.128 0.269,-6.478 1.438,-8.592 -0.06,-9.735 -1.497,-1.144 -7.03,-1.837 -14.279,-2.138 -7.248,-0.301 -10.075,0.817 -10.294,2.353 -0.218,1.537 -0.087,20.699 -1.101,26.527 -1.014,5.829 -0.208,23.629 2.228,28.21 2.436,4.582 14.742,9.573 16.6,9.495 C -3.43,8.2 0,0 0,0 Z"
             style="fill:none;stroke:#1a2e35;stroke-width:1;stroke-linecap:round;stroke-linejoin:round;stroke-miterlimit:10;stroke-dasharray:none;stroke-opacity:1"
             id="path96" />
        </g>
        <g
           id="g98"
           transform="translate(144.9482,291.0542)">
          <path
             d="M 0,0 3.296,-4.961 3.475,-9.28 -0.682,-5.899 Z"
             style="fill:#ffffff;fill-opacity:1;fill-rule:nonzero;stroke:none"
             id="path100" />
        </g>
        <g
           id="g102"
           transform="translate(144.9482,291.0542)">
          <path
             d="M 0,0 3.296,-4.961 3.475,-9.28 -0.682,-5.899 Z"
             style="fill:none;stroke:#1a2e35;stroke-width:1;stroke-linecap:round;stroke-linejoin:round;stroke-miterlimit:10;stroke-dasharray:none;stroke-opacity:1"
             id="path104" />
        </g>
        <g
           id="g106"
           transform="translate(149.0254,308.2178)">
          <path
             d="m 0,0 -8.709,-9.786 3.167,-9.292 11.715,4.349 c 0,0 -2.12,6.4 -2.415,9.787 -0.295,3.386 -0.391,5.7 -0.391,5.7 C 3.367,0.758 2.372,2.416 0,0"
             style="fill:#ffffff;fill-opacity:1;fill-rule:nonzero;stroke:none"
             id="path108" />
        </g>
        <g
           id="g110"
           transform="translate(149.0254,308.2178)">
          <path
             d="m 0,0 -8.709,-9.786 3.167,-9.292 11.715,4.349 c 0,0 -2.12,6.4 -2.415,9.787 -0.295,3.386 -0.391,5.7 -0.391,5.7 C 3.367,0.758 2.372,2.416 0,0 Z"
             style="fill:none;stroke:#1a2e35;stroke-width:1;stroke-linecap:round;stroke-linejoin:round;stroke-miterlimit:10;stroke-dasharray:none;stroke-opacity:1"
             id="path112" />
        </g>
        <g
           id="g114"
           transform="translate(170.5146,311.5815)">
          <path
             d="m 0,0 c 0,0 1.253,-0.412 3.335,1.529 2.082,1.94 2.617,7.679 -0.57,13.726 -3.186,6.047 -15.01,8.028 -20.806,6.243 -5.797,-1.786 -11.549,-8.359 -11.582,-15.003 -0.033,-6.644 4.001,-10.803 6.206,-11.793 2.204,-0.99 4.215,-1.061 5.757,-0.997 1.542,0.064 8.155,0.802 10.88,2.151 2.724,1.349 4.183,3.418 4.183,3.418 z"
             style="fill:#1a2e35;fill-opacity:1;fill-rule:nonzero;stroke:none"
             id="path116" />
        </g>
        <g
           id="g118"
           transform="translate(170.5146,311.5815)">
          <path
             d="m 0,0 c 0,0 1.253,-0.412 3.335,1.529 2.082,1.94 2.617,7.679 -0.57,13.726 -3.186,6.047 -15.01,8.028 -20.806,6.243 -5.797,-1.786 -11.549,-8.359 -11.582,-15.003 -0.033,-6.644 4.001,-10.803 6.206,-11.793 2.204,-0.99 4.215,-1.061 5.757,-0.997 1.542,0.064 8.155,0.802 10.88,2.151 2.724,1.349 4.183,3.418 4.183,3.418 z"
             style="fill:none;stroke:#1a2e35;stroke-width:1;stroke-linecap:round;stroke-linejoin:round;stroke-miterlimit:10;stroke-dasharray:none;stroke-opacity:1"
             id="path120" />
        </g>
        <g
           id="g122"
           transform="translate(154.3975,309.0586)">
          <path
             d="m 0,0 c 0,0 0.656,2.808 -2.042,4.55 -2.699,1.742 -3.304,-2.3 -2.899,-4.601 0.404,-2.3 1.066,-3.354 1.066,-3.354 0,0 -1.678,-4.241 -1.075,-7.615 0.604,-3.374 6.38,-8.541 7.768,-8.483 1.388,0.057 6.209,6.746 6.209,6.746 0,0 3.547,0.147 3.958,1.4 0.412,1.253 -0.243,5.861 -0.243,5.861 0,0 2.591,4.587 3.561,7.254 0.971,2.667 -2.357,4.692 -3.63,5.566 C 11.401,8.198 9.178,9.65 8.464,8.23 7.751,6.811 9.183,2.081 7.647,1.862 6.111,1.644 4.19,3.264 4.19,3.264 4.19,3.264 3.573,-0.47 2.037,-0.688 0.501,-0.906 0,0 0,0"
             style="fill:#ffffff;fill-opacity:1;fill-rule:nonzero;stroke:none"
             id="path124" />
        </g>
        <g
           id="g126"
           transform="translate(154.3975,309.0586)">
          <path
             d="m 0,0 c 0,0 0.656,2.808 -2.042,4.55 -2.699,1.742 -3.304,-2.3 -2.899,-4.601 0.404,-2.3 1.066,-3.354 1.066,-3.354 0,0 -1.678,-4.241 -1.075,-7.615 0.604,-3.374 6.38,-8.541 7.768,-8.483 1.388,0.057 6.209,6.746 6.209,6.746 0,0 3.547,0.147 3.958,1.4 0.412,1.253 -0.243,5.861 -0.243,5.861 0,0 2.591,4.587 3.561,7.254 0.971,2.667 -2.357,4.692 -3.63,5.566 C 11.401,8.198 9.178,9.65 8.464,8.23 7.751,6.811 9.183,2.081 7.647,1.862 6.111,1.644 4.19,3.264 4.19,3.264 4.19,3.264 3.573,-0.47 2.037,-0.688 0.501,-0.906 0,0 0,0 Z"
             style="fill:none;stroke:#1a2e35;stroke-width:1;stroke-linecap:round;stroke-linejoin:round;stroke-miterlimit:10;stroke-dasharray:none;stroke-opacity:1"
             id="path128" />
        </g>
        <g
           id="g130"
           transform="translate(140.8179,301.2339)">
          <path
             d="m 0,0 5.055,-13.849 -3.49,-5.243 -5.961,17.055 z"
             style="fill:#ffffff;fill-opacity:1;fill-rule:nonzero;stroke:none"
             id="path132" />
        </g>
        <g
           id="g134"
           transform="translate(140.8179,301.2339)">
          <path
             d="m 0,0 5.055,-13.849 -3.49,-5.243 -5.961,17.055 z"
             style="fill:none;stroke:#1a2e35;stroke-width:1;stroke-linecap:round;stroke-linejoin:round;stroke-miterlimit:10;stroke-dasharray:none;stroke-opacity:1"
             id="path136" />
        </g>
        <g
           id="g138"
           transform="translate(179.1592,284.1025)">
          <path
             d="m 0,0 -7.448,-20.253 1.81,0.075 7.48,19.477 z"
             style="fill:#1a2e35;fill-opacity:1;fill-rule:nonzero;stroke:none"
             id="path140" />
        </g>
        <g
           id="g142"
           transform="translate(179.1592,284.1025)">
          <path
             d="m 0,0 -7.448,-20.253 1.81,0.075 7.48,19.477 z"
             style="fill:none;stroke:#1a2e35;stroke-width:1;stroke-linecap:round;stroke-linejoin:round;stroke-miterlimit:10;stroke-dasharray:none;stroke-opacity:1"
             id="path144" />
        </g>
        <g
           id="g146"
           transform="translate(135.6411,253.0283)">
          <path
             d="m 0,0 c 0,0 28.41,8.172 29.165,8.722 0.753,0.549 -0.43,10.342 -0.43,10.342 l 6.443,0.786 c 0,0 2.09,-0.432 0.829,-1.261 -1.26,-0.829 -3.545,-1.96 -3.545,-1.96 l 7.704,1.615 1.96,2.671 c 0,0 1.605,-1.228 0.873,-2.295 C 42.266,17.554 41.565,15.711 41.598,14.936 41.63,14.16 41.5,11.047 39.744,9.679 37.988,8.311 27.86,2.71 23.044,0.18 18.228,-2.352 3.392,-13.068 -0.724,-13.758 -4.839,-14.446 -8.199,-2.153 -8.199,-2.153 Z"
             style="fill:#ffffff;fill-opacity:1;fill-rule:nonzero;stroke:none"
             id="path148" />
        </g>
        <g
           id="g150"
           transform="translate(135.6411,253.0283)">
          <path
             d="m 0,0 c 0,0 28.41,8.172 29.165,8.722 0.753,0.549 -0.43,10.342 -0.43,10.342 l 6.443,0.786 c 0,0 2.09,-0.432 0.829,-1.261 -1.26,-0.829 -3.545,-1.96 -3.545,-1.96 l 7.704,1.615 1.96,2.671 c 0,0 1.605,-1.228 0.873,-2.295 C 42.266,17.554 41.565,15.711 41.598,14.936 41.63,14.16 41.5,11.047 39.744,9.679 37.988,8.311 27.86,2.71 23.044,0.18 18.228,-2.352 3.392,-13.068 -0.724,-13.758 -4.839,-14.446 -8.199,-2.153 -8.199,-2.153 Z"
             style="fill:none;stroke:#1a2e35;stroke-width:1;stroke-linecap:round;stroke-linejoin:round;stroke-miterlimit:10;stroke-dasharray:none;stroke-opacity:1"
             id="path152" />
        </g>
        <g
           id="g154"
           transform="translate(127.0059,286.3403)">
          <path
             d="m 0,0 c 0,0 -5.333,-2.552 -5.15,-6.948 0.182,-4.395 2.311,-30.725 2.311,-30.725 l 12.799,3.639 0.164,14.77 c 0,0 2.091,5.785 2.264,7.864 0.173,2.079 -4.449,7.327 -4.449,7.327"
             style="fill:#aaff00;fill-opacity:1;fill-rule:nonzero;stroke:#1a2e35;stroke-width:1;stroke-linecap:round;stroke-linejoin:round;stroke-miterlimit:10;stroke-dasharray:none;stroke-opacity:1"
             id="path156" />
        </g>
        <g
           id="g158"
           transform="translate(133.0698,277.5269)">
          <path
             d="M 0,0 C 0,0 4.384,-5.775 4.06,-10.451"
             style="fill:none;stroke:#1a2e35;stroke-width:1;stroke-linecap:round;stroke-linejoin:round;stroke-miterlimit:10;stroke-dasharray:none;stroke-opacity:1"
             id="path160" />
        </g>
      </g>
    </g>
    <g
       id="g162">
      <g
         id="g164"
         clip-path="url(#clipPath168)">
        <g
           id="g170"
           transform="translate(263.0898,347.8643)">
          <path
             d="m 0,0 c 0,0 2.295,5.41 7.87,4.59 5.574,-0.819 10.001,-12.46 10.328,-17.706 0.328,-5.247 -2.623,-11.149 -1.802,-13.937 0.819,-2.787 7.049,0.164 7.049,-3.279 0,-3.442 -2.296,-9.181 -9.674,-9.837 -7.376,-0.656 -15.575,6.558 -17.05,12.133 -1.476,5.574 2.296,14.428 2.296,18.527 C -0.983,-5.411 0,0 0,0"
             style="fill:#1a2e35;fill-opacity:1;fill-rule:nonzero;stroke:none"
             id="path172" />
        </g>
        <g
           id="g174"
           transform="translate(263.0898,347.8643)">
          <path
             d="m 0,0 c 0,0 2.295,5.41 7.87,4.59 5.574,-0.819 10.001,-12.46 10.328,-17.706 0.328,-5.247 -2.623,-11.149 -1.802,-13.937 0.819,-2.787 7.049,0.164 7.049,-3.279 0,-3.442 -2.296,-9.181 -9.674,-9.837 -7.376,-0.656 -15.575,6.558 -17.05,12.133 -1.476,5.574 2.296,14.428 2.296,18.527 C -0.983,-5.411 0,0 0,0 Z"
             style="fill:none;stroke:#1a2e35;stroke-width:1;stroke-linecap:butt;stroke-linejoin:miter;stroke-miterlimit:10;stroke-dasharray:none;stroke-opacity:1"
             id="path176" />
        </g>
        <g
           id="g178"
           transform="translate(251.2852,349.3398)">
          <path
             d="m 0,0 c 0,0 -3.607,-0.492 -5.411,-3.279 -1.803,-2.787 1.804,-10.165 3.607,-11.477 1.804,-1.311 7.05,-4.427 10.329,-4.427 3.28,0 9.674,0.492 10.001,4.427 0.328,3.935 -2.951,11.149 -7.213,14.592 C 7.05,3.279 3.606,6.394 0,0"
             style="fill:#1a2e35;fill-opacity:1;fill-rule:nonzero;stroke:none"
             id="path180" />
        </g>
        <g
           id="g182"
           transform="translate(251.2852,349.3398)">
          <path
             d="m 0,0 c 0,0 -3.607,-0.492 -5.411,-3.279 -1.803,-2.787 1.804,-10.165 3.607,-11.477 1.804,-1.311 7.05,-4.427 10.329,-4.427 3.28,0 9.674,0.492 10.001,4.427 0.328,3.935 -2.951,11.149 -7.213,14.592 C 7.05,3.279 3.606,6.394 0,0 Z"
             style="fill:none;stroke:#1a2e35;stroke-width:1;stroke-linecap:butt;stroke-linejoin:miter;stroke-miterlimit:10;stroke-dasharray:none;stroke-opacity:1"
             id="path184" />
        </g>
        <g
           id="g186"
           transform="translate(249.3174,335.2397)">
          <path
             d="M 0,0 C 0,0 -1.312,1.967 -1.803,0.984 -2.295,0 -2.623,-2.131 -1.639,-3.443 -0.656,-4.755 0.492,-5.247 0.492,-5.247 Z"
             style="fill:#ffffff;fill-opacity:1;fill-rule:nonzero;stroke:none"
             id="path188" />
        </g>
        <g
           id="g190"
           transform="translate(249.3174,335.2397)">
          <path
             d="M 0,0 C 0,0 -1.312,1.967 -1.803,0.984 -2.295,0 -2.623,-2.131 -1.639,-3.443 -0.656,-4.755 0.492,-5.247 0.492,-5.247 Z"
             style="fill:none;stroke:#1a2e35;stroke-width:1;stroke-linecap:butt;stroke-linejoin:miter;stroke-miterlimit:10;stroke-dasharray:none;stroke-opacity:1"
             id="path192" />
        </g>
        <g
           id="g194"
           transform="translate(248.2202,200.4648)">
          <path
             d="m 0,0 c 0,0 -6.628,-7.954 -5.038,-9.015 1.591,-1.06 6.629,2.916 8.485,4.773 1.856,1.855 2.651,1.06 2.386,3.712 C 5.568,2.121 0,0 0,0"
             style="fill:#ffffff;fill-opacity:1;fill-rule:nonzero;stroke:none"
             id="path196" />
        </g>
        <g
           id="g198"
           transform="translate(248.2202,200.4648)">
          <path
             d="m 0,0 c 0,0 -6.628,-7.954 -5.038,-9.015 1.591,-1.06 6.629,2.916 8.485,4.773 1.856,1.855 2.651,1.06 2.386,3.712 C 5.568,2.121 0,0 0,0 Z"
             style="fill:none;stroke:#1a2e35;stroke-width:1;stroke-linecap:butt;stroke-linejoin:miter;stroke-miterlimit:10;stroke-dasharray:none;stroke-opacity:1"
             id="path200" />
        </g>
        <g
           id="g202"
           transform="translate(240.792,270.478)">
          <path
             d="m 0,0 c 0,0 -2.117,-14.6 -1.321,-20.963 0.795,-6.364 4.772,-14.848 5.037,-17.764 0.265,-2.917 -0.53,-9.811 0.531,-14.053 1.06,-4.242 3.181,-17.233 3.181,-17.233 0,0 1.061,-1.326 2.652,-1.326 1.591,0 3.182,0.796 3.182,0.796 0,0 1.059,43.216 1.059,47.459 0,4.242 0,10.87 2.652,13.256 2.651,2.386 9.818,7.027 10.08,11.468 C 27.313,6.08 11.141,6.61 6.368,6.08 1.595,5.55 0,0 0,0"
             style="fill:#aaff00;fill-opacity:1;fill-rule:nonzero;stroke:none"
             id="path204" />
        </g>
        <g
           id="g206"
           transform="translate(240.792,270.478)">
          <path
             d="m 0,0 c 0,0 -2.117,-14.6 -1.321,-20.963 0.795,-6.364 4.772,-14.848 5.037,-17.764 0.265,-2.917 -0.53,-9.811 0.531,-14.053 1.06,-4.242 3.181,-17.233 3.181,-17.233 0,0 1.061,-1.326 2.652,-1.326 1.591,0 3.182,0.796 3.182,0.796 0,0 1.059,43.216 1.059,47.459 0,4.242 0,10.87 2.652,13.256 2.651,2.386 9.818,7.027 10.08,11.468 C 27.313,6.08 11.141,6.61 6.368,6.08 1.595,5.55 0,0 0,0 Z"
             style="fill:none;stroke:#1a2e35;stroke-width:1;stroke-linecap:butt;stroke-linejoin:miter;stroke-miterlimit:10;stroke-dasharray:none;stroke-opacity:1"
             id="path208" />
        </g>
        <g
           id="g210"
           transform="translate(248.2202,200.4648)">
          <path
             d="m 0,0 c 0,0 1.061,-1.326 2.651,-1.326 1.592,0 3.182,0.796 3.182,0.796 0,0 0.942,38.365 1.05,46.344 L -3.667,28.406 C -3.731,25.042 -3.973,20.4 -3.182,17.233 -2.121,12.991 0,0 0,0"
             style="fill:#1a2e35;fill-opacity:1;fill-rule:nonzero;stroke:none"
             id="path212" />
        </g>
        <g
           id="g214"
           transform="translate(248.2202,200.4648)">
          <path
             d="m 0,0 c 0,0 1.061,-1.326 2.651,-1.326 1.592,0 3.182,0.796 3.182,0.796 0,0 0.942,38.365 1.05,46.344 L -3.667,28.406 C -3.731,25.042 -3.973,20.4 -3.182,17.233 -2.121,12.991 0,0 0,0 Z"
             style="fill:none;stroke:#1a2e35;stroke-width:1;stroke-linecap:butt;stroke-linejoin:miter;stroke-miterlimit:10;stroke-dasharray:none;stroke-opacity:1"
             id="path216" />
        </g>
        <g
           id="g218"
           transform="translate(258.5605,270.1948)">
          <path
             d="m 0,0 c 0,0 -2.651,-4.242 -3.447,-10.87 -0.795,-6.629 0,-29.695 0.53,-35.794 0.53,-6.097 2.387,-31.55 2.387,-31.55 l 4.507,1.855 c 0,0 4.507,26.249 4.242,32.082 -0.265,5.833 -2.386,7.689 -0.265,15.907 C 10.075,-20.15 13,-8.616 9.284,1.923 5.567,12.461 0,0 0,0"
             style="fill:#aaff00;fill-opacity:1;fill-rule:nonzero;stroke:none"
             id="path220" />
        </g>
        <g
           id="g222"
           transform="translate(258.5605,270.1948)">
          <path
             d="m 0,0 c 0,0 -2.651,-4.242 -3.447,-10.87 -0.795,-6.629 0,-29.695 0.53,-35.794 0.53,-6.097 2.387,-31.55 2.387,-31.55 l 4.507,1.855 c 0,0 4.507,26.249 4.242,32.082 -0.265,5.833 -2.386,7.689 -0.265,15.907 C 10.075,-20.15 13,-8.616 9.284,1.923 5.567,12.461 0,0 0,0 Z"
             style="fill:none;stroke:#1a2e35;stroke-width:1;stroke-linecap:butt;stroke-linejoin:miter;stroke-miterlimit:10;stroke-dasharray:none;stroke-opacity:1"
             id="path224" />
        </g>
        <g
           id="g226"
           transform="translate(255.876,322.6152)">
          <path
             d="m 0,0 c 0,0 -15.084,-4.591 -17.051,-6.066 -1.968,-1.476 -6.722,-25.741 -6.722,-28.2 0,-2.46 2.951,-4.591 5.41,-1.968 2.459,2.624 4.919,16.887 4.919,16.887 0,0 -0.984,-6.558 -0.164,-9.509 0.819,-2.951 1.639,-5.082 1.639,-5.082 l -3.115,-18.199 c 0,0 5.247,-2.951 12.133,-2.46 6.886,0.492 14.92,4.099 14.92,4.099 l -2.296,16.395 c 0,0 2.787,5.903 2.787,7.871 v 2.951 c 0,0 2.296,-12.297 4.263,-17.707 1.967,-5.411 9.181,-18.527 9.181,-18.527 l 2.787,0.656 c 0,0 -3.77,17.707 -5.246,21.15 -1.475,3.443 -3.607,10.984 -3.607,12.952 0,1.967 -0.819,16.068 -1.476,18.035 C 17.707,-4.755 8.361,-1.476 5.41,-0.492 2.459,0.492 0,0 0,0"
             style="fill:#ffffff;fill-opacity:1;fill-rule:nonzero;stroke:none"
             id="path228" />
        </g>
        <g
           id="g230"
           transform="translate(255.876,322.6152)">
          <path
             d="m 0,0 c 0,0 -15.084,-4.591 -17.051,-6.066 -1.968,-1.476 -6.722,-25.741 -6.722,-28.2 0,-2.46 2.951,-4.591 5.41,-1.968 2.459,2.624 4.919,16.887 4.919,16.887 0,0 -0.984,-6.558 -0.164,-9.509 0.819,-2.951 1.639,-5.082 1.639,-5.082 l -3.115,-18.199 c 0,0 5.247,-2.951 12.133,-2.46 6.886,0.492 14.92,4.099 14.92,4.099 l -2.296,16.395 c 0,0 2.787,5.903 2.787,7.871 v 2.951 c 0,0 2.296,-12.297 4.263,-17.707 1.967,-5.411 9.181,-18.527 9.181,-18.527 l 2.787,0.656 c 0,0 -3.77,17.707 -5.246,21.15 -1.475,3.443 -3.607,10.984 -3.607,12.952 0,1.967 -0.819,16.068 -1.476,18.035 C 17.707,-4.755 8.361,-1.476 5.41,-0.492 2.459,0.492 0,0 0,0 Z"
             style="fill:none;stroke:#1a2e35;stroke-width:1;stroke-linecap:butt;stroke-linejoin:miter;stroke-miterlimit:10;stroke-dasharray:none;stroke-opacity:1"
             id="path232" />
        </g>
        <g
           id="g234"
           transform="translate(254.7285,323.7627)">
          <path
             d="m 0,0 c 0,0 -1.968,-0.164 -2.788,-1.476 -0.819,-1.311 -2.295,-10.165 -2.295,-10.165 0,0 7.378,2.46 7.87,2.787 0.491,0.329 8.197,-3.77 8.197,-3.77 0,0 -0.492,6.722 -2.295,9.837 C 6.886,0.328 2.295,0.328 0,0"
             style="fill:#aaff00;fill-opacity:1;fill-rule:nonzero;stroke:none"
             id="path236" />
        </g>
        <g
           id="g238"
           transform="translate(254.7285,323.7627)">
          <path
             d="m 0,0 c 0,0 -1.968,-0.164 -2.788,-1.476 -0.819,-1.311 -2.295,-10.165 -2.295,-10.165 0,0 7.378,2.46 7.87,2.787 0.491,0.329 8.197,-3.77 8.197,-3.77 0,0 -0.492,6.722 -2.295,9.837 C 6.886,0.328 2.295,0.328 0,0 Z"
             style="fill:none;stroke:#1a2e35;stroke-width:1;stroke-linecap:butt;stroke-linejoin:miter;stroke-miterlimit:10;stroke-dasharray:none;stroke-opacity:1"
             id="path240" />
        </g>
        <g
           id="g242"
           transform="translate(253.7441,324.0908)">
          <path
             d="m 0,0 c 0,0 -0.328,-6.558 0,-7.87 0.328,-1.312 1.968,-5.574 3.279,-5.574 1.312,0 3.28,6.066 3.444,6.722 C 6.887,-6.066 7.378,0 7.378,0 Z"
             style="fill:#ffffff;fill-opacity:1;fill-rule:nonzero;stroke:none"
             id="path244" />
        </g>
        <g
           id="g246"
           transform="translate(253.7441,324.0908)">
          <path
             d="m 0,0 c 0,0 -0.328,-6.558 0,-7.87 0.328,-1.312 1.968,-5.574 3.279,-5.574 1.312,0 3.28,6.066 3.444,6.722 C 6.887,-6.066 7.378,0 7.378,0 Z"
             style="fill:none;stroke:#1a2e35;stroke-width:1;stroke-linecap:butt;stroke-linejoin:miter;stroke-miterlimit:10;stroke-dasharray:none;stroke-opacity:1"
             id="path248" />
        </g>
        <g
           id="g250"
           transform="translate(252.9248,341.9619)">
          <path
             d="m 0,0 c 0,0 -3.279,-3.115 -3.279,-4.755 0,-1.64 -0.492,-7.705 1.311,-10.657 1.804,-2.951 4.427,-5.574 7.214,-5.082 2.787,0.492 4.919,3.607 5.247,5.738 0.327,2.131 0.655,4.755 0.655,4.755 0,0 -6.066,1.803 -11.148,10.001"
             style="fill:#ffffff;fill-opacity:1;fill-rule:nonzero;stroke:none"
             id="path252" />
        </g>
        <g
           id="g254"
           transform="translate(252.9248,341.9619)">
          <path
             d="m 0,0 c 0,0 -3.279,-3.115 -3.279,-4.755 0,-1.64 -0.492,-7.705 1.311,-10.657 1.804,-2.951 4.427,-5.574 7.214,-5.082 2.787,0.492 4.919,3.607 5.247,5.738 0.327,2.131 0.655,4.755 0.655,4.755 0,0 -6.066,1.803 -11.148,10.001 z"
             style="fill:none;stroke:#1a2e35;stroke-width:1;stroke-linecap:butt;stroke-linejoin:miter;stroke-miterlimit:10;stroke-dasharray:none;stroke-opacity:1"
             id="path256" />
        </g>
        <g
           id="g258"
           transform="translate(260.1514,195.1621)">
          <path
             d="m 0,0 c 0,0 0.517,0.246 1.328,0.601 2.954,1.291 9.808,4.016 9.808,1.52 0,-3.182 -9.811,-10.075 -11.666,-10.34 -1.857,-0.265 -1.591,5.037 -1.591,5.037 0,0 0.53,1.061 2.121,3.182"
             style="fill:#ffffff;fill-opacity:1;fill-rule:nonzero;stroke:none"
             id="path260" />
        </g>
        <g
           id="g262"
           transform="translate(260.1514,195.1621)">
          <path
             d="m 0,0 c 0,0 0.517,0.246 1.328,0.601 2.954,1.291 9.808,4.016 9.808,1.52 0,-3.182 -9.811,-10.075 -11.666,-10.34 -1.857,-0.265 -1.591,5.037 -1.591,5.037 0,0 0.53,1.061 2.121,3.182 z"
             style="fill:none;stroke:#1a2e35;stroke-width:1;stroke-linecap:butt;stroke-linejoin:miter;stroke-miterlimit:10;stroke-dasharray:none;stroke-opacity:1"
             id="path264" />
        </g>
        <g
           id="g266"
           transform="translate(281.7803,263.1001)">
          <path
             d="m 0,0 c 0,0 0.214,-1.407 -1.047,-2.948 -1.261,-1.541 -2.241,-6.303 -1.12,-6.584 1.12,-0.28 0.98,0.42 1.4,1.681 0.421,1.261 1.121,2.101 1.121,2.101 0,0 0.42,-2.661 -0.14,-4.062 -0.56,-1.401 -1.401,-3.362 -0.56,-3.782 0.84,-0.421 1.821,0.14 2.661,2.241 0.841,2.102 1.261,5.603 1.261,7.004 0,1.401 -0.789,5.005 -0.789,5.005 z"
             style="fill:#ffffff;fill-opacity:1;fill-rule:nonzero;stroke:none"
             id="path268" />
        </g>
        <g
           id="g270"
           transform="translate(281.7803,263.1001)">
          <path
             d="m 0,0 c 0,0 0.214,-1.407 -1.047,-2.948 -1.261,-1.541 -2.241,-6.303 -1.12,-6.584 1.12,-0.28 0.98,0.42 1.4,1.681 0.421,1.261 1.121,2.101 1.121,2.101 0,0 0.42,-2.661 -0.14,-4.062 -0.56,-1.401 -1.401,-3.362 -0.56,-3.782 0.84,-0.421 1.821,0.14 2.661,2.241 0.841,2.102 1.261,5.603 1.261,7.004 0,1.401 -0.789,5.005 -0.789,5.005 z"
             style="fill:none;stroke:#1a2e35;stroke-width:1;stroke-linecap:butt;stroke-linejoin:miter;stroke-miterlimit:10;stroke-dasharray:none;stroke-opacity:1"
             id="path272" />
        </g>
        <path
           d="m 259.021,290.271 h -7.425 v 15.549 h 7.425 z"
           style="fill:#1a2e35;fill-opacity:1;fill-rule:nonzero;stroke:#1a2e35;stroke-width:1;stroke-linecap:butt;stroke-linejoin:miter;stroke-miterlimit:10;stroke-dasharray:none;stroke-opacity:1"
           id="path274" />
        <g
           id="g276"
           transform="translate(248.374,294.8936)">
          <path
             d="m 0,0 c 0,0 2.521,5.463 3.502,5.884 0.98,0.42 5.884,-0.421 5.884,-0.421 0,0 1.12,-0.98 0.841,-1.401 C 9.946,3.642 8.966,3.502 8.966,3.502 H 7.705 L 5.183,3.222 4.623,2.102 c 0,0 1.82,0.14 2.802,0 0.98,-0.141 2.802,-1.261 2.802,-1.822 0,-0.56 0,-0.98 -0.702,-1.401 -0.7,-0.42 -4.902,-1.26 -5.323,-1.541 -0.42,-0.28 -0.84,-1.12 -2.241,-2.101 -1.401,-0.981 -3.502,0 -3.502,0 l -0.561,1.401 z"
             style="fill:#ffffff;fill-opacity:1;fill-rule:nonzero;stroke:none"
             id="path278" />
        </g>
        <g
           id="g280"
           transform="translate(248.374,294.8936)">
          <path
             d="m 0,0 c 0,0 2.521,5.463 3.502,5.884 0.98,0.42 5.884,-0.421 5.884,-0.421 0,0 1.12,-0.98 0.841,-1.401 C 9.946,3.642 8.966,3.502 8.966,3.502 H 7.705 L 5.183,3.222 4.623,2.102 c 0,0 1.82,0.14 2.802,0 0.98,-0.141 2.802,-1.261 2.802,-1.822 0,-0.56 0,-0.98 -0.702,-1.401 -0.7,-0.42 -4.902,-1.26 -5.323,-1.541 -0.42,-0.28 -0.84,-1.12 -2.241,-2.101 -1.401,-0.981 -3.502,0 -3.502,0 l -0.561,1.401 z"
             style="fill:none;stroke:#1a2e35;stroke-width:1;stroke-linecap:butt;stroke-linejoin:miter;stroke-miterlimit:10;stroke-dasharray:none;stroke-opacity:1"
             id="path282" />
        </g>
        <g
           id="g284"
           transform="translate(246.2725,291.5317)">
          <path
             d="m 0,0 c 0,0 -11.207,-0.14 -12.047,-0.14 -0.841,0 -1.864,-0.342 -2.123,-3.043 -0.259,-2.701 -0.819,-4.662 1.282,-5.503 2.101,-0.84 15.97,6.725 15.97,6.725 0,0 -2.521,0 -3.082,1.961"
             style="fill:#ffffff;fill-opacity:1;fill-rule:nonzero;stroke:none"
             id="path286" />
        </g>
        <g
           id="g288"
           transform="translate(246.2725,291.5317)">
          <path
             d="m 0,0 c 0,0 -11.207,-0.14 -12.047,-0.14 -0.841,0 -1.864,-0.342 -2.123,-3.043 -0.259,-2.701 -0.819,-4.662 1.282,-5.503 2.101,-0.84 15.97,6.725 15.97,6.725 0,0 -2.521,0 -3.082,1.961 z"
             style="fill:none;stroke:#1a2e35;stroke-width:1;stroke-linecap:butt;stroke-linejoin:miter;stroke-miterlimit:10;stroke-dasharray:none;stroke-opacity:1"
             id="path290" />
        </g>
      </g>
    </g>
    <g
       id="g292">
      <g
         id="g294"
         clip-path="url(#clipPath298)">
        <g
           id="g300"
           transform="translate(351.7686,136.3301)">
          <path
             d="m 0,0 c 0,0 -7.684,-3.617 -9.124,-5.96 -1.44,-2.343 0.147,-2.474 2.621,-2.326 2.474,0.147 6.455,1.513 8.677,2.097 2.222,0.583 4.286,0.029 4.602,2.304 0.316,2.277 -0.214,3.599 -0.214,3.599 0,0 -2.886,2.987 -6.562,0.286"
             style="fill:#ffffff;fill-opacity:1;fill-rule:nonzero;stroke:none"
             id="path302" />
        </g>
        <g
           id="g304"
           transform="translate(351.7686,136.3301)">
          <path
             d="m 0,0 c 0,0 -7.684,-3.617 -9.124,-5.96 -1.44,-2.343 0.147,-2.474 2.621,-2.326 2.474,0.147 6.455,1.513 8.677,2.097 2.222,0.583 4.286,0.029 4.602,2.304 0.316,2.277 -0.214,3.599 -0.214,3.599 0,0 -2.886,2.987 -6.562,0.286 z"
             style="fill:none;stroke:#1a2e35;stroke-width:1;stroke-linecap:butt;stroke-linejoin:miter;stroke-miterlimit:10;stroke-dasharray:none;stroke-opacity:1"
             id="path306" />
        </g>
        <g
           id="g308"
           transform="translate(373.6123,133.3428)">
          <path
             d="m 0,0 c 0,0 -5.828,-8.246 -7.493,-10.603 -1.665,-2.355 1.603,-4.192 4.303,-4.031 2.698,0.16 8.133,3.644 9.124,5.96 0.99,2.316 0.444,7.699 0.444,7.699 0,0 -3.877,0.672 -6.378,0.975"
             style="fill:#ffffff;fill-opacity:1;fill-rule:nonzero;stroke:none"
             id="path310" />
        </g>
        <g
           id="g312"
           transform="translate(373.6123,133.3428)">
          <path
             d="m 0,0 c 0,0 -5.828,-8.246 -7.493,-10.603 -1.665,-2.355 1.603,-4.192 4.303,-4.031 2.698,0.16 8.133,3.644 9.124,5.96 0.99,2.316 0.444,7.699 0.444,7.699 0,0 -3.877,0.672 -6.378,0.975 z"
             style="fill:none;stroke:#1a2e35;stroke-width:1;stroke-linecap:butt;stroke-linejoin:miter;stroke-miterlimit:10;stroke-dasharray:none;stroke-opacity:1"
             id="path314" />
        </g>
        <g
           id="g316"
           transform="translate(348.7861,235.6826)">
          <path
             d="m 0,0 c 0,0 0.396,-18.031 -0.048,-25.731 -0.444,-7.701 1.49,-47.758 1.932,-55.18 0.442,-7.422 1.098,-18.442 1.098,-18.442 0,0 2.159,-2.127 6.562,-0.286 0,0 0.463,18.76 0.79,24.648 0.326,5.887 4.628,39.771 4.759,41.359 0.131,1.588 1.087,15.863 1.087,15.863 0,0 4.404,-36.074 4.82,-43.045 0.415,-6.972 3.205,-42.465 3.205,-42.465 0,0 1.151,-0.383 2.753,-0.74 1.601,-0.355 4.246,0.705 4.246,0.705 0,0 1.275,12.714 1.573,19.051 0.3,6.338 0.546,32.533 0.077,40.404 -0.468,7.872 -0.447,15.094 -0.29,16.233 0.159,1.138 2.124,28.789 1.009,32.334 C 32.459,8.252 16.8,2.129 11.124,2.693 5.448,3.259 -0.137,6.086 0,0"
             style="fill:#1a2e35;fill-opacity:1;fill-rule:nonzero;stroke:none"
             id="path318" />
        </g>
        <g
           id="g320"
           transform="translate(348.7861,235.6826)">
          <path
             d="m 0,0 c 0,0 0.396,-18.031 -0.048,-25.731 -0.444,-7.701 1.49,-47.758 1.932,-55.18 0.442,-7.422 1.098,-18.442 1.098,-18.442 0,0 2.159,-2.127 6.562,-0.286 0,0 0.463,18.76 0.79,24.648 0.326,5.887 4.628,39.771 4.759,41.359 0.131,1.588 1.087,15.863 1.087,15.863 0,0 4.404,-36.074 4.82,-43.045 0.415,-6.972 3.205,-42.465 3.205,-42.465 0,0 1.151,-0.383 2.753,-0.74 1.601,-0.355 4.246,0.705 4.246,0.705 0,0 1.275,12.714 1.573,19.051 0.3,6.338 0.546,32.533 0.077,40.404 -0.468,7.872 -0.447,15.094 -0.29,16.233 0.159,1.138 2.124,28.789 1.009,32.334 C 32.459,8.252 16.8,2.129 11.124,2.693 5.448,3.259 -0.137,6.086 0,0 Z"
             style="fill:none;stroke:#1a2e35;stroke-width:1;stroke-linecap:butt;stroke-linejoin:miter;stroke-miterlimit:10;stroke-dasharray:none;stroke-opacity:1"
             id="path322" />
        </g>
        <g
           id="g324"
           transform="translate(332.6143,260.8999)">
          <path
             d="m 0,0 c 0,0 8.699,-9.638 11.307,-11.74 2.607,-2.101 6.827,-0.947 8.069,0.932 1.242,1.88 1.15,18.576 1.15,18.576 L 17.284,28.112 12.688,-0.824 2.816,1.973 C 2.816,1.973 -0.412,3.135 0,0"
             style="fill:#aaff00;fill-opacity:1;fill-rule:nonzero;stroke:none"
             id="path326" />
        </g>
        <g
           id="g328"
           transform="translate(332.6143,260.8999)">
          <path
             d="m 0,0 c 0,0 8.699,-9.638 11.307,-11.74 2.607,-2.101 6.827,-0.947 8.069,0.932 1.242,1.88 1.15,18.576 1.15,18.576 L 17.284,28.112 12.688,-0.824 2.816,1.973 C 2.816,1.973 -0.412,3.135 0,0 Z"
             style="fill:none;stroke:#1a2e35;stroke-width:1;stroke-linecap:round;stroke-linejoin:round;stroke-miterlimit:10;stroke-dasharray:none;stroke-opacity:1"
             id="path330" />
        </g>
        <g
           id="g332"
           transform="translate(365.0947,295.334)">
          <path
             d="m 0,0 c 0,0 -13.028,-4.838 -14.575,-5.382 -1.548,-0.544 -2.217,-8.257 -2.107,-13.893 0.11,-5.636 -0.778,-39.994 0.692,-41.937 1.469,-1.944 4.433,-2.444 10.281,-2.097 5.847,0.349 16.706,3.704 19.985,5.479 3.281,1.775 4.126,2.728 4.126,2.728 0,0 2.835,31.992 3.755,39.269 0.921,7.277 -1.344,11.204 -4.189,13.518 C 15.121,-0.002 0,0 0,0"
             style="fill:#aaff00;fill-opacity:1;fill-rule:nonzero;stroke:none"
             id="path334" />
        </g>
        <g
           id="g336"
           transform="translate(365.0947,295.334)">
          <path
             d="m 0,0 c 0,0 -13.028,-4.838 -14.575,-5.382 -1.548,-0.544 -2.217,-8.257 -2.107,-13.893 0.11,-5.636 -0.778,-39.994 0.692,-41.937 1.469,-1.944 4.433,-2.444 10.281,-2.097 5.847,0.349 16.706,3.704 19.985,5.479 3.281,1.775 4.126,2.728 4.126,2.728 0,0 2.835,31.992 3.755,39.269 0.921,7.277 -1.344,11.204 -4.189,13.518 C 15.121,-0.002 0,0 0,0 Z"
             style="fill:none;stroke:#1a2e35;stroke-width:1;stroke-linecap:butt;stroke-linejoin:miter;stroke-miterlimit:10;stroke-dasharray:none;stroke-opacity:1"
             id="path338" />
        </g>
        <g
           id="g340"
           transform="translate(365.0947,295.334)">
          <path
             d="m 0,0 c 0,0 -1.931,-0.717 -4.392,-1.629 -1.031,-3.632 -2.122,-8.449 -2.122,-12.586 0,-7.846 2.452,-7.355 6.866,-2.942 3.566,3.566 8.412,10.974 11.175,16.532 C 6.296,-0.002 0,0 0,0"
             style="fill:#ffffff;fill-opacity:1;fill-rule:nonzero;stroke:none"
             id="path342" />
        </g>
        <g
           id="g344"
           transform="translate(365.0947,295.334)">
          <path
             d="m 0,0 c 0,0 -1.931,-0.717 -4.392,-1.629 -1.031,-3.632 -2.122,-8.449 -2.122,-12.586 0,-7.846 2.452,-7.355 6.866,-2.942 3.566,3.566 8.412,10.974 11.175,16.532 C 6.296,-0.002 0,0 0,0 Z"
             style="fill:none;stroke:#1a2e35;stroke-width:1;stroke-linecap:butt;stroke-linejoin:miter;stroke-miterlimit:10;stroke-dasharray:none;stroke-opacity:1"
             id="path346" />
        </g>
        <g
           id="g348"
           transform="translate(361.6543,296.2573)">
          <path
             d="m 0,0 c 0,0 1.473,-5.78 0.999,-9.194 -0.474,-3.413 -1.24,-5.716 0.335,-5.622 1.574,0.093 7.006,7.414 7.507,10.377 0.5,2.964 0.307,13.786 0.307,13.786 z"
             style="fill:#ffffff;fill-opacity:1;fill-rule:nonzero;stroke:none"
             id="path350" />
        </g>
        <g
           id="g352"
           transform="translate(361.6543,296.2573)">
          <path
             d="m 0,0 c 0,0 1.473,-5.78 0.999,-9.194 -0.474,-3.413 -1.24,-5.716 0.335,-5.622 1.574,0.093 7.006,7.414 7.507,10.377 0.5,2.964 0.307,13.786 0.307,13.786 z"
             style="fill:none;stroke:#1a2e35;stroke-width:1;stroke-linecap:butt;stroke-linejoin:miter;stroke-miterlimit:10;stroke-dasharray:none;stroke-opacity:1"
             id="path354" />
        </g>
        <g
           id="g356"
           transform="translate(352.0068,318.0264)">
          <path
             d="m 0,0 c 0,0 1.529,-10.517 2.418,-14.075 0.89,-3.558 3.302,-9.959 5.114,-10.077 1.813,-0.118 8.755,4.584 10.208,6.702 1.454,2.117 1.304,8.428 1.54,12.053 0.236,3.625 -1.143,7.831 -3.46,8.822 C 13.505,4.415 1.202,2.554 0,0"
             style="fill:#ffffff;fill-opacity:1;fill-rule:nonzero;stroke:none"
             id="path358" />
        </g>
        <g
           id="g360"
           transform="translate(352.0068,318.0264)">
          <path
             d="m 0,0 c 0,0 1.529,-10.517 2.418,-14.075 0.89,-3.558 3.302,-9.959 5.114,-10.077 1.813,-0.118 8.755,4.584 10.208,6.702 1.454,2.117 1.304,8.428 1.54,12.053 0.236,3.625 -1.143,7.831 -3.46,8.822 C 13.505,4.415 1.202,2.554 0,0 Z"
             style="fill:none;stroke:#1a2e35;stroke-width:1;stroke-linecap:butt;stroke-linejoin:miter;stroke-miterlimit:10;stroke-dasharray:none;stroke-opacity:1"
             id="path362" />
        </g>
        <g
           id="g364"
           transform="translate(365.5273,318.3799)">
          <path
             d="m 0,0 c 0,0 -4.894,-1.194 -11.865,-1.609 -6.972,-0.415 -7.848,2.918 -6.025,6.412 1.824,3.494 8.248,9.293 18.013,8.295 9.765,-0.999 10.736,-9.743 10.235,-12.706 -0.5,-2.964 -1.793,-7.781 -1.793,-7.781 0,0 -1.735,2.605 -2.805,1.639 -1.072,-0.967 -1.042,-5.253 -1.042,-5.253 l -2.434,-0.822 c 0,0 -0.584,2.222 -1.073,2.869 -0.49,0.648 -3.732,2.035 -3.8,3.16 C -2.655,-4.672 0,0 0,0"
             style="fill:#1a2e35;fill-opacity:1;fill-rule:nonzero;stroke:none"
             id="path366" />
        </g>
        <g
           id="g368"
           transform="translate(365.5273,318.3799)">
          <path
             d="m 0,0 c 0,0 -4.894,-1.194 -11.865,-1.609 -6.972,-0.415 -7.848,2.918 -6.025,6.412 1.824,3.494 8.248,9.293 18.013,8.295 9.765,-0.999 10.736,-9.743 10.235,-12.706 -0.5,-2.964 -1.793,-7.781 -1.793,-7.781 0,0 -1.735,2.605 -2.805,1.639 -1.072,-0.967 -1.042,-5.253 -1.042,-5.253 l -2.434,-0.822 c 0,0 -0.584,2.222 -1.073,2.869 -0.49,0.648 -3.732,2.035 -3.8,3.16 C -2.655,-4.672 0,0 0,0 Z"
             style="fill:none;stroke:#1a2e35;stroke-width:1;stroke-linecap:butt;stroke-linejoin:miter;stroke-miterlimit:10;stroke-dasharray:none;stroke-opacity:1"
             id="path370" />
        </g>
        <g
           id="g372"
           transform="translate(369.624,306.4365)">
          <path
             d="M 0,0 C 0,0 0.683,7.489 3.435,6.75 6.187,6.011 5.237,3.021 3.81,0.453 2.383,-2.115 0.624,-2.896 0.624,-2.896"
             style="fill:#ffffff;fill-opacity:1;fill-rule:nonzero;stroke:#1a2e35;stroke-width:1;stroke-linecap:butt;stroke-linejoin:miter;stroke-miterlimit:10;stroke-dasharray:none;stroke-opacity:1"
             id="path374" />
        </g>
        <g
           id="g376"
           transform="translate(380.9229,287.2485)">
          <path
             d="m 0,0 c 0,0 -1.676,-5.968 -1.515,-8.667 0.161,-2.698 11.865,-32.469 12.183,-34.031 0.318,-1.56 4.645,-2.206 6.8,-0.497 2.155,1.708 3.146,4.024 1.66,10.029 C 18.208,-29.448 8.576,-3.777 7.898,0.019 7.221,3.815 4.586,6.367 2.14,5.77"
             style="fill:#aaff00;fill-opacity:1;fill-rule:nonzero;stroke:#1a2e35;stroke-width:1;stroke-linecap:butt;stroke-linejoin:miter;stroke-miterlimit:10;stroke-dasharray:none;stroke-opacity:1"
             id="path378" />
        </g>
        <g
           id="g380"
           transform="translate(371.9502,237.0625)">
          <path
             d="m 0,0 c 0,0 -0.225,-0.014 -1.931,-1.695 -1.705,-1.682 -1.783,-4.169 -1.783,-4.169 l 4.249,-3.132 1.942,5.307 z"
             style="fill:#ffffff;fill-opacity:1;fill-rule:nonzero;stroke:none"
             id="path382" />
        </g>
        <g
           id="g384"
           transform="translate(371.9502,237.0625)">
          <path
             d="m 0,0 c 0,0 -0.225,-0.014 -1.931,-1.695 -1.705,-1.682 -1.783,-4.169 -1.783,-4.169 l 4.249,-3.132 1.942,5.307 z"
             style="fill:none;stroke:#1a2e35;stroke-width:1;stroke-linecap:butt;stroke-linejoin:miter;stroke-miterlimit:10;stroke-dasharray:none;stroke-opacity:1"
             id="path386" />
        </g>
        <g
           id="g388"
           transform="translate(393.7002,254.6069)">
          <path
             d="m 0,0 c 0,0 -8.661,-6.158 -11.636,-9.269 -1.993,-2.085 -10.114,-8.275 -10.114,-8.275 l 2.477,-3.69 c 0,0 4.742,2.319 9.005,4.148 5.502,2.358 16.126,2.088 17.416,10.741"
             style="fill:#aaff00;fill-opacity:1;fill-rule:nonzero;stroke:#1a2e35;stroke-width:1;stroke-linecap:butt;stroke-linejoin:miter;stroke-miterlimit:10;stroke-dasharray:none;stroke-opacity:1"
             id="path390" />
        </g>
        <g
           id="g392"
           transform="translate(329.5889,273.8101)">
          <path
             d="M 0,0 7.062,-16.281 14.524,-16.514 7.885,0.244 Z"
             style="fill:#1a2e35;fill-opacity:1;fill-rule:nonzero;stroke:none"
             id="path394" />
        </g>
        <g
           id="g396"
           transform="translate(329.5889,273.8101)">
          <path
             d="M 0,0 7.062,-16.281 14.524,-16.514 7.885,0.244 Z"
             style="fill:none;stroke:#1a2e35;stroke-width:1;stroke-linecap:butt;stroke-linejoin:miter;stroke-miterlimit:10;stroke-dasharray:none;stroke-opacity:1"
             id="path398" />
        </g>
        <g
           id="g400"
           transform="translate(335.3877,267.3843)">
          <path
             d="m 0,0 c 0,0 -4.803,1.068 -5.411,-0.096 -0.608,-1.165 2.201,-6.64 3.406,-7.923 1.205,-1.282 4.102,-0.658 5.636,0.11 1.534,0.769 0.195,4.3 -0.732,4.697 -0.925,0.396 -5.477,1.027 -5.477,1.027 0,0 4.101,-0.658 4.723,0.282 C 2.766,-0.963 1.826,-0.342 0,0"
             style="fill:#ffffff;fill-opacity:1;fill-rule:nonzero;stroke:none"
             id="path402" />
        </g>
        <g
           id="g404"
           transform="translate(335.3877,267.3843)">
          <path
             d="m 0,0 c 0,0 -4.803,1.068 -5.411,-0.096 -0.608,-1.165 2.201,-6.64 3.406,-7.923 1.205,-1.282 4.102,-0.658 5.636,0.11 1.534,0.769 0.195,4.3 -0.732,4.697 -0.925,0.396 -5.477,1.027 -5.477,1.027 0,0 4.101,-0.658 4.723,0.282 C 2.766,-0.963 1.826,-0.342 0,0 Z"
             style="fill:none;stroke:#1a2e35;stroke-width:1;stroke-linecap:butt;stroke-linejoin:miter;stroke-miterlimit:10;stroke-dasharray:none;stroke-opacity:1"
             id="path406" />
        </g>
      </g>
    </g>
  </g>
</svg>
